<svg xmlns="http://www.w3.org/2000/svg" viewBox="0 0 64 64" id="Drawing"><path fill="none" stroke="#ffffff" stroke-linecap="round" stroke-linejoin="round" stroke-width="3" d="M46.37 13.13H7.29a2.56 2.56 0 0 0-2.56 2.56v32.62a2.56 2.56 0 0 0 2.56 2.56h49.42a2.56 2.56 0 0 0 2.56-2.56V15.68a2.55 2.55 0 0 0-2.56-2.55h0" class="colorStroke000000 svgStroke"></path><path fill="none" stroke="#ffffff" stroke-linecap="round" stroke-linejoin="round" stroke-width="3" d="m46.59 27.22-4.43 1.55A1.83 1.83 0 0 1 39.72 27l.05-4.69L50 8.06a4.2 4.2 0 0 1 5.86-1h0a4.19 4.19 0 0 1 1 5.85ZM5.36 49.99l15.03-21.11L34.5 50.87l12.88-12.99 11.16 12.21" class="colorStroke000000 svgStroke"></path><circle cx="30.95" cy="23.11" r="4.5" fill="none" stroke="#ffffff" stroke-linecap="round" stroke-linejoin="round" stroke-width="3" class="colorStroke000000 svgStroke"></circle><path fill="none" stroke="#ffffff" stroke-linecap="round" stroke-linejoin="round" stroke-width="3" d="m41.59 19.79 6.68 5.08" class="colorStroke000000 svgStroke"></path></svg>